<mxfile host="65bd71144e">
    <diagram id="IfaHLEzc9hbXiV-kEbx_" name="Page-1">
        <mxGraphModel dx="1097" dy="779" grid="1" gridSize="10" guides="1" tooltips="1" connect="1" arrows="1" fold="1" page="1" pageScale="1" pageWidth="1600" pageHeight="900" math="0" shadow="0">
            <root>
                <mxCell id="0"/>
                <mxCell id="1" parent="0"/>
                <mxCell id="3" value="3DR&#10;Telemetry" style="rounded=1;fillColor=#76608a;fontColor=#ffffff;strokeColor=#432D57;fontSize=16;" parent="1" vertex="1">
                    <mxGeometry x="500" y="350" width="110" height="80" as="geometry"/>
                </mxCell>
                <mxCell id="5" value="Telemetry&#10;Receive&#10;Driver" style="rounded=1;fillColor=#60a917;fontColor=#ffffff;strokeColor=#2D7600;fontSize=16;" parent="1" vertex="1">
                    <mxGeometry x="690" y="230" width="110" height="80" as="geometry"/>
                </mxCell>
                <mxCell id="8" value="Decrypt" style="rounded=1;fillColor=#60a917;fontColor=#ffffff;strokeColor=#2D7600;fontSize=16;" parent="1" vertex="1">
                    <mxGeometry x="910" y="230" width="110" height="80" as="geometry"/>
                </mxCell>
                <mxCell id="9" value="Encrypt" style="rounded=1;fillColor=#60a917;fontColor=#ffffff;strokeColor=#2D7600;fontSize=16;" parent="1" vertex="1">
                    <mxGeometry x="690" y="470" width="110" height="80" as="geometry"/>
                </mxCell>
                <mxCell id="11" value="Pixhawk&#10;UART" style="rounded=1;fillColor=#76608a;fontColor=#ffffff;strokeColor=#432D57;fontSize=16;" parent="1" vertex="1">
                    <mxGeometry x="1100" y="350" width="110" height="80" as="geometry"/>
                </mxCell>
                <mxCell id="22" value="UART&#10;Receive&#10;Driver" style="rounded=1;fillColor=#60a917;fontColor=#ffffff;strokeColor=#2D7600;fontSize=16;" parent="1" vertex="1">
                    <mxGeometry x="910" y="470" width="110" height="80" as="geometry"/>
                </mxCell>
                <mxCell id="27" value="Key&#10;Exchange" style="rounded=1;fillColor=#60a917;fontColor=#ffffff;strokeColor=#2D7600;fontSize=16;" parent="1" vertex="1">
                    <mxGeometry x="800" y="350" width="110" height="80" as="geometry"/>
                </mxCell>
                <mxCell id="30" value="&lt;font style=&quot;font-size: 16px;&quot;&gt;Caption&lt;/font&gt;" style="swimlane;fontStyle=0;childLayout=stackLayout;horizontal=1;startSize=30;horizontalStack=0;resizeParent=1;resizeParentMax=0;resizeLast=0;collapsible=1;marginBottom=0;whiteSpace=wrap;html=1;" parent="1" vertex="1">
                    <mxGeometry x="430" y="490" width="210" height="150" as="geometry"/>
                </mxCell>
                <mxCell id="31" value="&lt;font style=&quot;font-size: 16px;&quot;&gt;Physical Connection&lt;/font&gt;" style="text;strokeColor=none;fillColor=none;align=left;verticalAlign=middle;spacingLeft=4;spacingRight=4;overflow=hidden;points=[[0,0.5],[1,0.5]];portConstraint=eastwest;rotatable=0;whiteSpace=wrap;html=1;" parent="30" vertex="1">
                    <mxGeometry y="30" width="210" height="30" as="geometry"/>
                </mxCell>
                <mxCell id="28" value="" style="edgeStyle=none;exitX=1;exitY=0;exitDx=0;exitDy=0;strokeWidth=3;fillColor=#76608a;strokeColor=#432D57;" parent="30" edge="1">
                    <mxGeometry relative="1" as="geometry">
                        <mxPoint x="160" y="44.58000000000004" as="sourcePoint"/>
                        <mxPoint x="200" y="44.58000000000004" as="targetPoint"/>
                    </mxGeometry>
                </mxCell>
                <mxCell id="32" value="&lt;font style=&quot;font-size: 16px;&quot;&gt;Dataport&lt;/font&gt;" style="text;strokeColor=none;fillColor=none;align=left;verticalAlign=middle;spacingLeft=4;spacingRight=4;overflow=hidden;points=[[0,0.5],[1,0.5]];portConstraint=eastwest;rotatable=0;whiteSpace=wrap;html=1;" parent="30" vertex="1">
                    <mxGeometry y="60" width="210" height="30" as="geometry"/>
                </mxCell>
                <mxCell id="34" value="" style="edgeStyle=none;exitX=1;exitY=0;exitDx=0;exitDy=0;strokeWidth=3;fillColor=#1ba1e2;strokeColor=#006EAF;" parent="30" edge="1">
                    <mxGeometry relative="1" as="geometry">
                        <mxPoint x="160" y="74.58000000000004" as="sourcePoint"/>
                        <mxPoint x="200" y="74.58000000000004" as="targetPoint"/>
                    </mxGeometry>
                </mxCell>
                <mxCell id="35" value="" style="edgeStyle=none;exitX=1;exitY=0;exitDx=0;exitDy=0;strokeWidth=3;fillColor=#fa6800;strokeColor=#C73500;" parent="30" edge="1">
                    <mxGeometry relative="1" as="geometry">
                        <mxPoint x="160" y="104.58000000000004" as="sourcePoint"/>
                        <mxPoint x="200" y="104.58000000000004" as="targetPoint"/>
                    </mxGeometry>
                </mxCell>
                <mxCell id="33" value="&lt;font style=&quot;font-size: 16px;&quot;&gt;RPC Call&lt;/font&gt;" style="text;strokeColor=none;fillColor=none;align=left;verticalAlign=middle;spacingLeft=4;spacingRight=4;overflow=hidden;points=[[0,0.5],[1,0.5]];portConstraint=eastwest;rotatable=0;whiteSpace=wrap;html=1;" parent="30" vertex="1">
                    <mxGeometry y="90" width="210" height="30" as="geometry"/>
                </mxCell>
                <mxCell id="37" value="" style="edgeStyle=none;exitX=1;exitY=0;exitDx=0;exitDy=0;strokeWidth=3;fillColor=#60a917;strokeColor=#2D7600;" parent="30" edge="1">
                    <mxGeometry relative="1" as="geometry">
                        <mxPoint x="160" y="134.58000000000004" as="sourcePoint"/>
                        <mxPoint x="200" y="134.58000000000004" as="targetPoint"/>
                    </mxGeometry>
                </mxCell>
                <mxCell id="36" value="&lt;font style=&quot;font-size: 16px;&quot;&gt;Notification&lt;/font&gt;" style="text;strokeColor=none;fillColor=none;align=left;verticalAlign=middle;spacingLeft=4;spacingRight=4;overflow=hidden;points=[[0,0.5],[1,0.5]];portConstraint=eastwest;rotatable=0;whiteSpace=wrap;html=1;" parent="30" vertex="1">
                    <mxGeometry y="120" width="210" height="30" as="geometry"/>
                </mxCell>
                <mxCell id="39" value="" style="endArrow=classic;html=1;exitX=1;exitY=0;exitDx=0;exitDy=0;entryX=0;entryY=1;entryDx=0;entryDy=0;strokeWidth=3;fillColor=#76608a;strokeColor=#432D57;" edge="1" parent="1" source="3" target="5">
                    <mxGeometry relative="1" as="geometry">
                        <mxPoint x="620" y="349" as="sourcePoint"/>
                        <mxPoint x="720" y="349" as="targetPoint"/>
                    </mxGeometry>
                </mxCell>
                <mxCell id="40" value="&lt;font style=&quot;font-size: 16px;&quot;&gt;RX&lt;/font&gt;" style="edgeLabel;resizable=0;html=1;align=center;verticalAlign=middle;labelBackgroundColor=none;" connectable="0" vertex="1" parent="39">
                    <mxGeometry relative="1" as="geometry"/>
                </mxCell>
                <mxCell id="42" value="" style="endArrow=classic;html=1;exitX=0;exitY=0;exitDx=0;exitDy=0;strokeWidth=3;fillColor=#76608a;strokeColor=#432D57;entryX=1;entryY=1;entryDx=0;entryDy=0;" edge="1" parent="1" source="9" target="3">
                    <mxGeometry relative="1" as="geometry">
                        <mxPoint x="620" y="360" as="sourcePoint"/>
                        <mxPoint x="690" y="420" as="targetPoint"/>
                    </mxGeometry>
                </mxCell>
                <mxCell id="43" value="&lt;font style=&quot;font-size: 16px;&quot;&gt;TX&lt;/font&gt;" style="edgeLabel;resizable=0;html=1;align=center;verticalAlign=middle;labelBackgroundColor=none;" connectable="0" vertex="1" parent="42">
                    <mxGeometry relative="1" as="geometry"/>
                </mxCell>
                <mxCell id="44" value="" style="endArrow=classic;html=1;exitX=0;exitY=0;exitDx=0;exitDy=0;entryX=0.5;entryY=1;entryDx=0;entryDy=0;strokeWidth=3;fillColor=#60a917;strokeColor=#2D7600;" edge="1" parent="1" source="27" target="5">
                    <mxGeometry relative="1" as="geometry">
                        <mxPoint x="630" y="370" as="sourcePoint"/>
                        <mxPoint x="710" y="330" as="targetPoint"/>
                    </mxGeometry>
                </mxCell>
                <mxCell id="45" value="&lt;font style=&quot;font-size: 16px;&quot;&gt;Switch buffer&lt;/font&gt;" style="edgeLabel;resizable=0;html=1;align=center;verticalAlign=middle;labelBackgroundColor=none;" connectable="0" vertex="1" parent="44">
                    <mxGeometry relative="1" as="geometry"/>
                </mxCell>
                <mxCell id="46" value="" style="endArrow=classic;html=1;exitX=1;exitY=1;exitDx=0;exitDy=0;entryX=0.5;entryY=0;entryDx=0;entryDy=0;strokeWidth=3;fillColor=#60a917;strokeColor=#2D7600;" edge="1" parent="1" source="27" target="22">
                    <mxGeometry relative="1" as="geometry">
                        <mxPoint x="640" y="380" as="sourcePoint"/>
                        <mxPoint x="720" y="340" as="targetPoint"/>
                    </mxGeometry>
                </mxCell>
                <mxCell id="47" value="&lt;font style=&quot;font-size: 16px;&quot;&gt;Switch buffer&lt;/font&gt;" style="edgeLabel;resizable=0;html=1;align=center;verticalAlign=middle;labelBackgroundColor=none;" connectable="0" vertex="1" parent="46">
                    <mxGeometry relative="1" as="geometry"/>
                </mxCell>
                <mxCell id="48" value="" style="endArrow=classic;html=1;exitX=1;exitY=0;exitDx=0;exitDy=0;entryX=0.5;entryY=1;entryDx=0;entryDy=0;strokeWidth=3;fillColor=#fa6800;strokeColor=#C73500;" edge="1" parent="1" source="27" target="8">
                    <mxGeometry relative="1" as="geometry">
                        <mxPoint x="650" y="390" as="sourcePoint"/>
                        <mxPoint x="730" y="350" as="targetPoint"/>
                    </mxGeometry>
                </mxCell>
                <mxCell id="49" value="&lt;font style=&quot;font-size: 16px;&quot;&gt;Key&lt;/font&gt;" style="edgeLabel;resizable=0;html=1;align=center;verticalAlign=middle;labelBackgroundColor=none;" connectable="0" vertex="1" parent="48">
                    <mxGeometry relative="1" as="geometry"/>
                </mxCell>
                <mxCell id="50" value="" style="endArrow=classic;html=1;exitX=0;exitY=1;exitDx=0;exitDy=0;entryX=0.5;entryY=0;entryDx=0;entryDy=0;strokeWidth=3;fillColor=#fa6800;strokeColor=#C73500;" edge="1" parent="1" source="27" target="9">
                    <mxGeometry relative="1" as="geometry">
                        <mxPoint x="920" y="360" as="sourcePoint"/>
                        <mxPoint x="975" y="320" as="targetPoint"/>
                    </mxGeometry>
                </mxCell>
                <mxCell id="51" value="&lt;font style=&quot;font-size: 16px;&quot;&gt;Key&lt;/font&gt;" style="edgeLabel;resizable=0;html=1;align=center;verticalAlign=middle;labelBackgroundColor=none;" connectable="0" vertex="1" parent="50">
                    <mxGeometry relative="1" as="geometry"/>
                </mxCell>
                <mxCell id="52" value="" style="endArrow=classic;html=1;exitX=1;exitY=0.5;exitDx=0;exitDy=0;entryX=0;entryY=0.5;entryDx=0;entryDy=0;strokeWidth=3;fillColor=#1ba1e2;strokeColor=#006EAF;" edge="1" parent="1" source="5" target="8">
                    <mxGeometry relative="1" as="geometry">
                        <mxPoint x="930" y="370" as="sourcePoint"/>
                        <mxPoint x="985" y="330" as="targetPoint"/>
                    </mxGeometry>
                </mxCell>
                <mxCell id="53" value="&lt;font style=&quot;font-size: 16px;&quot;&gt;Ringbuffer&lt;/font&gt;" style="edgeLabel;resizable=0;html=1;align=center;verticalAlign=middle;labelBackgroundColor=none;" connectable="0" vertex="1" parent="52">
                    <mxGeometry relative="1" as="geometry"/>
                </mxCell>
                <mxCell id="54" value="" style="endArrow=classic;html=1;exitX=0;exitY=0.5;exitDx=0;exitDy=0;entryX=1;entryY=0.5;entryDx=0;entryDy=0;strokeWidth=3;fillColor=#1ba1e2;strokeColor=#006EAF;" edge="1" parent="1" source="22" target="9">
                    <mxGeometry relative="1" as="geometry">
                        <mxPoint x="810" y="280" as="sourcePoint"/>
                        <mxPoint x="920" y="280" as="targetPoint"/>
                    </mxGeometry>
                </mxCell>
                <mxCell id="55" value="&lt;font style=&quot;font-size: 16px;&quot;&gt;Ringbuffer&lt;/font&gt;" style="edgeLabel;resizable=0;html=1;align=center;verticalAlign=middle;labelBackgroundColor=none;" connectable="0" vertex="1" parent="54">
                    <mxGeometry relative="1" as="geometry"/>
                </mxCell>
                <mxCell id="56" value="" style="endArrow=classic;html=1;exitX=1;exitY=1;exitDx=0;exitDy=0;strokeWidth=3;fillColor=#76608a;strokeColor=#432D57;entryX=0;entryY=0;entryDx=0;entryDy=0;" edge="1" parent="1" source="8" target="11">
                    <mxGeometry relative="1" as="geometry">
                        <mxPoint x="700" y="480" as="sourcePoint"/>
                        <mxPoint x="620" y="440" as="targetPoint"/>
                    </mxGeometry>
                </mxCell>
                <mxCell id="57" value="&lt;font style=&quot;font-size: 16px;&quot;&gt;TX&lt;/font&gt;" style="edgeLabel;resizable=0;html=1;align=center;verticalAlign=middle;labelBackgroundColor=none;" connectable="0" vertex="1" parent="56">
                    <mxGeometry relative="1" as="geometry"/>
                </mxCell>
                <mxCell id="58" value="" style="endArrow=classic;html=1;exitX=0;exitY=1;exitDx=0;exitDy=0;entryX=1;entryY=0;entryDx=0;entryDy=0;strokeWidth=3;fillColor=#76608a;strokeColor=#432D57;" edge="1" parent="1" source="11" target="22">
                    <mxGeometry relative="1" as="geometry">
                        <mxPoint x="620" y="360" as="sourcePoint"/>
                        <mxPoint x="700" y="320" as="targetPoint"/>
                    </mxGeometry>
                </mxCell>
                <mxCell id="59" value="&lt;font style=&quot;font-size: 16px;&quot;&gt;RX&lt;/font&gt;" style="edgeLabel;resizable=0;html=1;align=center;verticalAlign=middle;labelBackgroundColor=none;" connectable="0" vertex="1" parent="58">
                    <mxGeometry relative="1" as="geometry"/>
                </mxCell>
            </root>
        </mxGraphModel>
    </diagram>
</mxfile>